<mxfile host="app.diagrams.net" agent="Mozilla/5.0 (Windows NT 10.0; Win64; x64) AppleWebKit/537.36 (KHTML, like Gecko) Chrome/127.0.0.0 Safari/537.36" version="24.7.7">
  <diagram id="mq6n4i3C8jo_xAJ1f7aj" name="Strona-1">
    <mxGraphModel dx="2117" dy="522" grid="1" gridSize="10" guides="1" tooltips="1" connect="1" arrows="1" fold="1" page="1" pageScale="1" pageWidth="827" pageHeight="1169" math="0" shadow="0">
      <root>
        <mxCell id="0" />
        <mxCell id="1" parent="0" />
        <mxCell id="LPG2CI9ZZa7Fva0SI1HR-1" value="" style="rounded=0;whiteSpace=wrap;html=1;" parent="1" vertex="1">
          <mxGeometry x="110" y="20" width="810" height="880" as="geometry" />
        </mxCell>
        <mxCell id="LPG2CI9ZZa7Fva0SI1HR-2" value="Niezarejestrowany użytkownik " style="shape=umlActor;verticalLabelPosition=bottom;verticalAlign=top;html=1;outlineConnect=0;" parent="1" vertex="1">
          <mxGeometry x="30" y="800" width="30" height="60" as="geometry" />
        </mxCell>
        <mxCell id="LPG2CI9ZZa7Fva0SI1HR-3" value="Zarejestrowany użykownik " style="shape=umlActor;verticalLabelPosition=bottom;verticalAlign=top;html=1;outlineConnect=0;" parent="1" vertex="1">
          <mxGeometry x="1000" y="690" width="30" height="60" as="geometry" />
        </mxCell>
        <mxCell id="LPG2CI9ZZa7Fva0SI1HR-5" value="Wyszukaj " style="ellipse;whiteSpace=wrap;html=1;" parent="1" vertex="1">
          <mxGeometry x="190" y="750" width="120" height="80" as="geometry" />
        </mxCell>
        <mxCell id="LPG2CI9ZZa7Fva0SI1HR-6" value="" style="endArrow=none;html=1;exitX=1;exitY=0.3333333333333333;exitDx=0;exitDy=0;exitPerimeter=0;" parent="1" source="LPG2CI9ZZa7Fva0SI1HR-2" edge="1">
          <mxGeometry width="50" height="50" relative="1" as="geometry">
            <mxPoint x="150" y="850" as="sourcePoint" />
            <mxPoint x="190" y="800" as="targetPoint" />
          </mxGeometry>
        </mxCell>
        <mxCell id="LPG2CI9ZZa7Fva0SI1HR-7" value="Wyszukaj" style="ellipse;whiteSpace=wrap;html=1;" parent="1" vertex="1">
          <mxGeometry x="760" y="650" width="120" height="80" as="geometry" />
        </mxCell>
        <mxCell id="LPG2CI9ZZa7Fva0SI1HR-8" value="" style="endArrow=none;html=1;exitX=0;exitY=0.3333333333333333;exitDx=0;exitDy=0;exitPerimeter=0;" parent="1" source="LPG2CI9ZZa7Fva0SI1HR-3" target="LPG2CI9ZZa7Fva0SI1HR-7" edge="1">
          <mxGeometry width="50" height="50" relative="1" as="geometry">
            <mxPoint x="390" y="540" as="sourcePoint" />
            <mxPoint x="440" y="490" as="targetPoint" />
          </mxGeometry>
        </mxCell>
        <mxCell id="LPG2CI9ZZa7Fva0SI1HR-9" value="Rezerwuji" style="ellipse;whiteSpace=wrap;html=1;" parent="1" vertex="1">
          <mxGeometry x="470" y="410" width="120" height="80" as="geometry" />
        </mxCell>
        <mxCell id="LPG2CI9ZZa7Fva0SI1HR-10" value="Extends" style="endArrow=block;endSize=16;endFill=0;html=1;entryX=0.4;entryY=0;entryDx=0;entryDy=0;entryPerimeter=0;" parent="1" source="LPG2CI9ZZa7Fva0SI1HR-9" target="LPG2CI9ZZa7Fva0SI1HR-7" edge="1">
          <mxGeometry width="160" relative="1" as="geometry">
            <mxPoint x="510" y="670" as="sourcePoint" />
            <mxPoint x="670" y="670" as="targetPoint" />
          </mxGeometry>
        </mxCell>
        <mxCell id="LPG2CI9ZZa7Fva0SI1HR-11" value="Modyfikuj" style="ellipse;whiteSpace=wrap;html=1;" parent="1" vertex="1">
          <mxGeometry x="540" y="290" width="140" height="70" as="geometry" />
        </mxCell>
        <mxCell id="LPG2CI9ZZa7Fva0SI1HR-12" value="Anuluji" style="ellipse;whiteSpace=wrap;html=1;" parent="1" vertex="1">
          <mxGeometry x="680" y="410" width="140" height="70" as="geometry" />
        </mxCell>
        <mxCell id="LPG2CI9ZZa7Fva0SI1HR-13" value="Potwierdź" style="ellipse;whiteSpace=wrap;html=1;" parent="1" vertex="1">
          <mxGeometry x="610" y="180" width="140" height="70" as="geometry" />
        </mxCell>
        <mxCell id="LPG2CI9ZZa7Fva0SI1HR-14" value="Extends" style="endArrow=block;endSize=16;endFill=0;html=1;exitX=0.657;exitY=1;exitDx=0;exitDy=0;exitPerimeter=0;" parent="1" source="LPG2CI9ZZa7Fva0SI1HR-11" target="LPG2CI9ZZa7Fva0SI1HR-9" edge="1">
          <mxGeometry width="160" relative="1" as="geometry">
            <mxPoint x="450" y="620" as="sourcePoint" />
            <mxPoint x="610" y="620" as="targetPoint" />
          </mxGeometry>
        </mxCell>
        <mxCell id="LPG2CI9ZZa7Fva0SI1HR-16" value="Extends" style="endArrow=block;endSize=16;endFill=0;html=1;exitX=0.5;exitY=1;exitDx=0;exitDy=0;" parent="1" source="LPG2CI9ZZa7Fva0SI1HR-12" target="LPG2CI9ZZa7Fva0SI1HR-9" edge="1">
          <mxGeometry width="160" relative="1" as="geometry">
            <mxPoint x="770" y="550" as="sourcePoint" />
            <mxPoint x="930" y="550" as="targetPoint" />
          </mxGeometry>
        </mxCell>
        <mxCell id="LPG2CI9ZZa7Fva0SI1HR-17" value="Extends" style="endArrow=block;endSize=16;endFill=0;html=1;" parent="1" source="LPG2CI9ZZa7Fva0SI1HR-11" target="LPG2CI9ZZa7Fva0SI1HR-12" edge="1">
          <mxGeometry width="160" relative="1" as="geometry">
            <mxPoint x="640" y="430" as="sourcePoint" />
            <mxPoint x="800" y="430" as="targetPoint" />
          </mxGeometry>
        </mxCell>
        <mxCell id="LPG2CI9ZZa7Fva0SI1HR-18" value="Extends" style="endArrow=block;endSize=16;endFill=0;html=1;exitX=0.5;exitY=1;exitDx=0;exitDy=0;" parent="1" source="LPG2CI9ZZa7Fva0SI1HR-13" target="LPG2CI9ZZa7Fva0SI1HR-11" edge="1">
          <mxGeometry width="160" relative="1" as="geometry">
            <mxPoint x="270" y="440" as="sourcePoint" />
            <mxPoint x="430" y="440" as="targetPoint" />
          </mxGeometry>
        </mxCell>
        <mxCell id="LPG2CI9ZZa7Fva0SI1HR-19" value="Wybierz jacht" style="ellipse;whiteSpace=wrap;html=1;" parent="1" vertex="1">
          <mxGeometry x="470" y="690" width="140" height="70" as="geometry" />
        </mxCell>
        <mxCell id="LPG2CI9ZZa7Fva0SI1HR-20" value="Extends" style="endArrow=block;endSize=16;endFill=0;html=1;exitX=1;exitY=0.5;exitDx=0;exitDy=0;" parent="1" source="LPG2CI9ZZa7Fva0SI1HR-19" target="LPG2CI9ZZa7Fva0SI1HR-7" edge="1">
          <mxGeometry width="160" relative="1" as="geometry">
            <mxPoint x="600" y="800" as="sourcePoint" />
            <mxPoint x="760" y="800" as="targetPoint" />
          </mxGeometry>
        </mxCell>
        <mxCell id="LPG2CI9ZZa7Fva0SI1HR-21" value="" style="endArrow=none;html=1;exitX=0.779;exitY=0.971;exitDx=0;exitDy=0;exitPerimeter=0;" parent="1" source="LPG2CI9ZZa7Fva0SI1HR-19" edge="1">
          <mxGeometry width="50" height="50" relative="1" as="geometry">
            <mxPoint x="620" y="830" as="sourcePoint" />
            <mxPoint x="1000" y="710" as="targetPoint" />
            <Array as="points">
              <mxPoint x="800" y="770" />
            </Array>
          </mxGeometry>
        </mxCell>
        <mxCell id="LPG2CI9ZZa7Fva0SI1HR-22" value="" style="endArrow=none;html=1;exitX=0.967;exitY=0.763;exitDx=0;exitDy=0;exitPerimeter=0;" parent="1" source="LPG2CI9ZZa7Fva0SI1HR-9" target="LPG2CI9ZZa7Fva0SI1HR-3" edge="1">
          <mxGeometry width="50" height="50" relative="1" as="geometry">
            <mxPoint x="870" y="600" as="sourcePoint" />
            <mxPoint x="920" y="550" as="targetPoint" />
            <Array as="points">
              <mxPoint x="600" y="490" />
              <mxPoint x="890" y="630" />
            </Array>
          </mxGeometry>
        </mxCell>
        <mxCell id="LPG2CI9ZZa7Fva0SI1HR-23" value="" style="endArrow=none;html=1;exitX=0.5;exitY=0;exitDx=0;exitDy=0;exitPerimeter=0;entryX=1;entryY=1;entryDx=0;entryDy=0;" parent="1" source="LPG2CI9ZZa7Fva0SI1HR-3" target="LPG2CI9ZZa7Fva0SI1HR-12" edge="1">
          <mxGeometry width="50" height="50" relative="1" as="geometry">
            <mxPoint x="880" y="600" as="sourcePoint" />
            <mxPoint x="930" y="550" as="targetPoint" />
          </mxGeometry>
        </mxCell>
        <mxCell id="LPG2CI9ZZa7Fva0SI1HR-24" value="" style="endArrow=none;html=1;exitX=0.5;exitY=0;exitDx=0;exitDy=0;exitPerimeter=0;" parent="1" source="LPG2CI9ZZa7Fva0SI1HR-3" target="LPG2CI9ZZa7Fva0SI1HR-11" edge="1">
          <mxGeometry width="50" height="50" relative="1" as="geometry">
            <mxPoint x="930" y="540" as="sourcePoint" />
            <mxPoint x="980" y="490" as="targetPoint" />
            <Array as="points">
              <mxPoint x="840" y="420" />
            </Array>
          </mxGeometry>
        </mxCell>
        <mxCell id="LPG2CI9ZZa7Fva0SI1HR-25" value="" style="endArrow=none;html=1;exitX=0.993;exitY=0.614;exitDx=0;exitDy=0;exitPerimeter=0;entryX=0.75;entryY=0.1;entryDx=0;entryDy=0;entryPerimeter=0;" parent="1" source="LPG2CI9ZZa7Fva0SI1HR-13" target="LPG2CI9ZZa7Fva0SI1HR-3" edge="1">
          <mxGeometry width="50" height="50" relative="1" as="geometry">
            <mxPoint x="870" y="410" as="sourcePoint" />
            <mxPoint x="920" y="360" as="targetPoint" />
            <Array as="points">
              <mxPoint x="940" y="420" />
            </Array>
          </mxGeometry>
        </mxCell>
        <mxCell id="LPG2CI9ZZa7Fva0SI1HR-26" value="Dodaj do koszyka" style="ellipse;whiteSpace=wrap;html=1;" parent="1" vertex="1">
          <mxGeometry x="240" y="600" width="140" height="70" as="geometry" />
        </mxCell>
        <mxCell id="LPG2CI9ZZa7Fva0SI1HR-27" value="Extends" style="endArrow=block;endSize=16;endFill=0;html=1;" parent="1" source="LPG2CI9ZZa7Fva0SI1HR-26" target="LPG2CI9ZZa7Fva0SI1HR-19" edge="1">
          <mxGeometry width="160" relative="1" as="geometry">
            <mxPoint x="380" y="690" as="sourcePoint" />
            <mxPoint x="540" y="690" as="targetPoint" />
          </mxGeometry>
        </mxCell>
        <mxCell id="LPG2CI9ZZa7Fva0SI1HR-28" value="" style="endArrow=none;html=1;exitX=0.236;exitY=0.929;exitDx=0;exitDy=0;exitPerimeter=0;entryX=0;entryY=1;entryDx=0;entryDy=0;entryPerimeter=0;" parent="1" source="LPG2CI9ZZa7Fva0SI1HR-26" target="LPG2CI9ZZa7Fva0SI1HR-3" edge="1">
          <mxGeometry width="50" height="50" relative="1" as="geometry">
            <mxPoint x="570" y="850" as="sourcePoint" />
            <mxPoint x="620" y="800" as="targetPoint" />
            <Array as="points">
              <mxPoint x="490" y="780" />
              <mxPoint x="810" y="800" />
            </Array>
          </mxGeometry>
        </mxCell>
        <mxCell id="LPG2CI9ZZa7Fva0SI1HR-29" value="Wyszukaj zaawansowane" style="ellipse;whiteSpace=wrap;html=1;" parent="1" vertex="1">
          <mxGeometry x="550" y="600" width="140" height="70" as="geometry" />
        </mxCell>
        <mxCell id="LPG2CI9ZZa7Fva0SI1HR-30" value="Extends" style="endArrow=block;endSize=16;endFill=0;html=1;exitX=0.921;exitY=0.814;exitDx=0;exitDy=0;exitPerimeter=0;" parent="1" source="LPG2CI9ZZa7Fva0SI1HR-29" target="LPG2CI9ZZa7Fva0SI1HR-7" edge="1">
          <mxGeometry width="160" relative="1" as="geometry">
            <mxPoint x="640" y="660" as="sourcePoint" />
            <mxPoint x="800" y="660" as="targetPoint" />
          </mxGeometry>
        </mxCell>
        <mxCell id="LPG2CI9ZZa7Fva0SI1HR-31" value="" style="endArrow=none;html=1;entryX=1;entryY=1;entryDx=0;entryDy=0;entryPerimeter=0;" parent="1" source="LPG2CI9ZZa7Fva0SI1HR-29" target="LPG2CI9ZZa7Fva0SI1HR-3" edge="1">
          <mxGeometry width="50" height="50" relative="1" as="geometry">
            <mxPoint x="740" y="880" as="sourcePoint" />
            <mxPoint x="790" y="830" as="targetPoint" />
            <Array as="points">
              <mxPoint x="730" y="840" />
            </Array>
          </mxGeometry>
        </mxCell>
        <mxCell id="LPG2CI9ZZa7Fva0SI1HR-32" value="Extends" style="endArrow=block;endSize=16;endFill=0;html=1;entryX=0.5;entryY=0;entryDx=0;entryDy=0;" parent="1" source="LPG2CI9ZZa7Fva0SI1HR-9" target="LPG2CI9ZZa7Fva0SI1HR-29" edge="1">
          <mxGeometry width="160" relative="1" as="geometry">
            <mxPoint x="460" y="570" as="sourcePoint" />
            <mxPoint x="620" y="570" as="targetPoint" />
          </mxGeometry>
        </mxCell>
        <mxCell id="LPG2CI9ZZa7Fva0SI1HR-34" value="Extends" style="endArrow=block;endSize=16;endFill=0;html=1;exitX=0.379;exitY=0.029;exitDx=0;exitDy=0;exitPerimeter=0;" parent="1" source="LPG2CI9ZZa7Fva0SI1HR-19" target="LPG2CI9ZZa7Fva0SI1HR-29" edge="1">
          <mxGeometry width="160" relative="1" as="geometry">
            <mxPoint x="410" y="550" as="sourcePoint" />
            <mxPoint x="570" y="550" as="targetPoint" />
          </mxGeometry>
        </mxCell>
        <mxCell id="LPG2CI9ZZa7Fva0SI1HR-36" value="Wybierz dodatkowe opcje(usługi/sprzęt)" style="ellipse;whiteSpace=wrap;html=1;" parent="1" vertex="1">
          <mxGeometry x="360" y="520" width="140" height="70" as="geometry" />
        </mxCell>
        <mxCell id="LPG2CI9ZZa7Fva0SI1HR-37" value="Extends" style="endArrow=block;endSize=16;endFill=0;html=1;exitX=0.643;exitY=1;exitDx=0;exitDy=0;exitPerimeter=0;" parent="1" source="LPG2CI9ZZa7Fva0SI1HR-36" target="LPG2CI9ZZa7Fva0SI1HR-19" edge="1">
          <mxGeometry width="160" relative="1" as="geometry">
            <mxPoint x="400" y="610" as="sourcePoint" />
            <mxPoint x="560" y="610" as="targetPoint" />
          </mxGeometry>
        </mxCell>
        <mxCell id="LPG2CI9ZZa7Fva0SI1HR-38" value="Extends" style="endArrow=block;endSize=16;endFill=0;html=1;entryX=0.271;entryY=0.957;entryDx=0;entryDy=0;entryPerimeter=0;exitX=0.979;exitY=0.329;exitDx=0;exitDy=0;exitPerimeter=0;" parent="1" source="LPG2CI9ZZa7Fva0SI1HR-26" target="LPG2CI9ZZa7Fva0SI1HR-36" edge="1">
          <mxGeometry width="160" relative="1" as="geometry">
            <mxPoint x="240" y="570" as="sourcePoint" />
            <mxPoint x="400" y="570" as="targetPoint" />
          </mxGeometry>
        </mxCell>
        <mxCell id="LPG2CI9ZZa7Fva0SI1HR-40" value="" style="endArrow=none;html=1;entryX=0.25;entryY=0.1;entryDx=0;entryDy=0;entryPerimeter=0;exitX=1;exitY=0.5;exitDx=0;exitDy=0;" parent="1" source="LPG2CI9ZZa7Fva0SI1HR-36" target="LPG2CI9ZZa7Fva0SI1HR-3" edge="1">
          <mxGeometry width="50" height="50" relative="1" as="geometry">
            <mxPoint x="420" y="530" as="sourcePoint" />
            <mxPoint x="470" y="480" as="targetPoint" />
            <Array as="points">
              <mxPoint x="730" y="590" />
            </Array>
          </mxGeometry>
        </mxCell>
        <mxCell id="LPG2CI9ZZa7Fva0SI1HR-41" value="Modyfikuj koszyk" style="ellipse;whiteSpace=wrap;html=1;" parent="1" vertex="1">
          <mxGeometry x="140" y="500" width="140" height="70" as="geometry" />
        </mxCell>
        <mxCell id="LPG2CI9ZZa7Fva0SI1HR-42" value="Usuń z koszyka" style="ellipse;whiteSpace=wrap;html=1;" parent="1" vertex="1">
          <mxGeometry x="280" y="400" width="140" height="70" as="geometry" />
        </mxCell>
        <mxCell id="LPG2CI9ZZa7Fva0SI1HR-43" value="Extends" style="endArrow=block;endSize=16;endFill=0;html=1;entryX=0;entryY=0;entryDx=0;entryDy=0;" parent="1" source="LPG2CI9ZZa7Fva0SI1HR-41" target="LPG2CI9ZZa7Fva0SI1HR-26" edge="1">
          <mxGeometry width="160" relative="1" as="geometry">
            <mxPoint x="90" y="580" as="sourcePoint" />
            <mxPoint x="250" y="580" as="targetPoint" />
          </mxGeometry>
        </mxCell>
        <mxCell id="LPG2CI9ZZa7Fva0SI1HR-44" value="Extends" style="endArrow=block;endSize=16;endFill=0;html=1;entryX=0.557;entryY=0.014;entryDx=0;entryDy=0;entryPerimeter=0;" parent="1" target="LPG2CI9ZZa7Fva0SI1HR-26" edge="1">
          <mxGeometry width="160" relative="1" as="geometry">
            <mxPoint x="330" y="470" as="sourcePoint" />
            <mxPoint x="440" y="490" as="targetPoint" />
            <Array as="points">
              <mxPoint x="330" y="470" />
            </Array>
          </mxGeometry>
        </mxCell>
        <mxCell id="LPG2CI9ZZa7Fva0SI1HR-45" value="" style="endArrow=none;html=1;entryX=1;entryY=0.3333333333333333;entryDx=0;entryDy=0;entryPerimeter=0;" parent="1" source="LPG2CI9ZZa7Fva0SI1HR-41" target="LPG2CI9ZZa7Fva0SI1HR-3" edge="1">
          <mxGeometry width="50" height="50" relative="1" as="geometry">
            <mxPoint x="190" y="370" as="sourcePoint" />
            <mxPoint x="240" y="320" as="targetPoint" />
            <Array as="points">
              <mxPoint x="200" y="710" />
              <mxPoint x="810" y="900" />
              <mxPoint x="1070" y="820" />
            </Array>
          </mxGeometry>
        </mxCell>
        <mxCell id="LPG2CI9ZZa7Fva0SI1HR-46" value="" style="endArrow=none;html=1;exitX=0.5;exitY=0;exitDx=0;exitDy=0;entryX=1;entryY=0.3333333333333333;entryDx=0;entryDy=0;entryPerimeter=0;" parent="1" source="LPG2CI9ZZa7Fva0SI1HR-42" target="LPG2CI9ZZa7Fva0SI1HR-3" edge="1">
          <mxGeometry width="50" height="50" relative="1" as="geometry">
            <mxPoint x="230" y="370" as="sourcePoint" />
            <mxPoint x="280" y="320" as="targetPoint" />
            <Array as="points">
              <mxPoint x="630" y="160" />
              <mxPoint x="950" y="220" />
            </Array>
          </mxGeometry>
        </mxCell>
        <mxCell id="LPG2CI9ZZa7Fva0SI1HR-47" value="Extends" style="endArrow=block;endSize=16;endFill=0;html=1;exitX=0.342;exitY=0.05;exitDx=0;exitDy=0;exitPerimeter=0;" parent="1" source="LPG2CI9ZZa7Fva0SI1HR-9" target="LPG2CI9ZZa7Fva0SI1HR-41" edge="1">
          <mxGeometry width="160" relative="1" as="geometry">
            <mxPoint x="240" y="260" as="sourcePoint" />
            <mxPoint x="400" y="260" as="targetPoint" />
            <Array as="points">
              <mxPoint x="300" y="320" />
            </Array>
          </mxGeometry>
        </mxCell>
        <mxCell id="LPG2CI9ZZa7Fva0SI1HR-48" value="Extends" style="endArrow=block;endSize=16;endFill=0;html=1;entryX=1;entryY=0.5;entryDx=0;entryDy=0;exitX=0;exitY=0.5;exitDx=0;exitDy=0;" parent="1" source="LPG2CI9ZZa7Fva0SI1HR-9" target="LPG2CI9ZZa7Fva0SI1HR-42" edge="1">
          <mxGeometry width="160" relative="1" as="geometry">
            <mxPoint x="340" y="370" as="sourcePoint" />
            <mxPoint x="500" y="370" as="targetPoint" />
            <Array as="points">
              <mxPoint x="450" y="470" />
            </Array>
          </mxGeometry>
        </mxCell>
        <mxCell id="LPG2CI9ZZa7Fva0SI1HR-49" value="Wybierz sposób płatności" style="ellipse;whiteSpace=wrap;html=1;" parent="1" vertex="1">
          <mxGeometry x="310" y="160" width="140" height="70" as="geometry" />
        </mxCell>
        <mxCell id="LPG2CI9ZZa7Fva0SI1HR-50" value="Extends" style="endArrow=block;endSize=16;endFill=0;html=1;entryX=0.043;entryY=0.286;entryDx=0;entryDy=0;entryPerimeter=0;" parent="1" source="LPG2CI9ZZa7Fva0SI1HR-49" target="LPG2CI9ZZa7Fva0SI1HR-13" edge="1">
          <mxGeometry width="160" relative="1" as="geometry">
            <mxPoint x="430" y="140" as="sourcePoint" />
            <mxPoint x="590" y="140" as="targetPoint" />
          </mxGeometry>
        </mxCell>
        <mxCell id="LPG2CI9ZZa7Fva0SI1HR-51" value="Zapłać kartą" style="ellipse;whiteSpace=wrap;html=1;" parent="1" vertex="1">
          <mxGeometry x="130" y="220" width="140" height="70" as="geometry" />
        </mxCell>
        <mxCell id="LPG2CI9ZZa7Fva0SI1HR-52" value="Zapłać przelewem" style="ellipse;whiteSpace=wrap;html=1;" parent="1" vertex="1">
          <mxGeometry x="110" y="30" width="140" height="70" as="geometry" />
        </mxCell>
        <mxCell id="LPG2CI9ZZa7Fva0SI1HR-53" value="Extends" style="endArrow=block;endSize=16;endFill=0;html=1;exitX=1;exitY=0.5;exitDx=0;exitDy=0;" parent="1" source="LPG2CI9ZZa7Fva0SI1HR-51" edge="1">
          <mxGeometry width="160" relative="1" as="geometry">
            <mxPoint x="210" y="230" as="sourcePoint" />
            <mxPoint x="370" y="230" as="targetPoint" />
          </mxGeometry>
        </mxCell>
        <mxCell id="LPG2CI9ZZa7Fva0SI1HR-54" value="Extends" style="endArrow=block;endSize=16;endFill=0;html=1;exitX=0.979;exitY=0.657;exitDx=0;exitDy=0;exitPerimeter=0;" parent="1" source="LPG2CI9ZZa7Fva0SI1HR-52" target="LPG2CI9ZZa7Fva0SI1HR-49" edge="1">
          <mxGeometry width="160" relative="1" as="geometry">
            <mxPoint x="290" y="120" as="sourcePoint" />
            <mxPoint x="450" y="120" as="targetPoint" />
          </mxGeometry>
        </mxCell>
        <mxCell id="LPG2CI9ZZa7Fva0SI1HR-56" value="" style="endArrow=none;html=1;entryX=1;entryY=0.3333333333333333;entryDx=0;entryDy=0;entryPerimeter=0;" parent="1" source="LPG2CI9ZZa7Fva0SI1HR-49" target="LPG2CI9ZZa7Fva0SI1HR-3" edge="1">
          <mxGeometry width="50" height="50" relative="1" as="geometry">
            <mxPoint x="500" y="160" as="sourcePoint" />
            <mxPoint x="550" y="110" as="targetPoint" />
            <Array as="points">
              <mxPoint x="780" y="100" />
              <mxPoint x="1090" y="280" />
            </Array>
          </mxGeometry>
        </mxCell>
        <mxCell id="LPG2CI9ZZa7Fva0SI1HR-57" value="" style="endArrow=none;html=1;" parent="1" source="LPG2CI9ZZa7Fva0SI1HR-52" edge="1">
          <mxGeometry width="50" height="50" relative="1" as="geometry">
            <mxPoint x="380" y="120" as="sourcePoint" />
            <mxPoint x="1030" y="710" as="targetPoint" />
            <Array as="points">
              <mxPoint x="690" y="90" />
              <mxPoint x="870" y="100" />
              <mxPoint x="1130" y="180" />
              <mxPoint x="1090" y="600" />
            </Array>
          </mxGeometry>
        </mxCell>
        <mxCell id="LPG2CI9ZZa7Fva0SI1HR-58" value="" style="endArrow=none;html=1;exitX=1;exitY=0;exitDx=0;exitDy=0;entryX=1;entryY=0.3333333333333333;entryDx=0;entryDy=0;entryPerimeter=0;" parent="1" source="LPG2CI9ZZa7Fva0SI1HR-51" target="LPG2CI9ZZa7Fva0SI1HR-3" edge="1">
          <mxGeometry width="50" height="50" relative="1" as="geometry">
            <mxPoint x="300" y="110" as="sourcePoint" />
            <mxPoint x="350" y="60" as="targetPoint" />
            <Array as="points">
              <mxPoint x="420" y="30" />
              <mxPoint x="1150" y="110" />
              <mxPoint x="1150" y="450" />
              <mxPoint x="1120" y="650" />
            </Array>
          </mxGeometry>
        </mxCell>
        <mxCell id="LPG2CI9ZZa7Fva0SI1HR-60" value="Zarejestruj się" style="ellipse;whiteSpace=wrap;html=1;" parent="1" vertex="1">
          <mxGeometry x="350" y="810" width="140" height="70" as="geometry" />
        </mxCell>
        <mxCell id="LPG2CI9ZZa7Fva0SI1HR-61" value="" style="endArrow=none;html=1;entryX=0.029;entryY=0.771;entryDx=0;entryDy=0;entryPerimeter=0;exitX=1;exitY=0.3333333333333333;exitDx=0;exitDy=0;exitPerimeter=0;" parent="1" source="LPG2CI9ZZa7Fva0SI1HR-2" target="LPG2CI9ZZa7Fva0SI1HR-60" edge="1">
          <mxGeometry width="50" height="50" relative="1" as="geometry">
            <mxPoint x="200" y="890" as="sourcePoint" />
            <mxPoint x="250" y="840" as="targetPoint" />
          </mxGeometry>
        </mxCell>
        <mxCell id="LPG2CI9ZZa7Fva0SI1HR-62" value="Extends" style="endArrow=block;endSize=16;endFill=0;html=1;entryX=0.908;entryY=0.8;entryDx=0;entryDy=0;entryPerimeter=0;" parent="1" source="LPG2CI9ZZa7Fva0SI1HR-60" target="LPG2CI9ZZa7Fva0SI1HR-5" edge="1">
          <mxGeometry width="160" relative="1" as="geometry">
            <mxPoint x="260" y="820" as="sourcePoint" />
            <mxPoint x="420" y="820" as="targetPoint" />
          </mxGeometry>
        </mxCell>
      </root>
    </mxGraphModel>
  </diagram>
</mxfile>
